<?xml version="1.0" encoding="UTF-8"?>
<svg id="Calque_1" data-name="Calque 1" xmlns="http://www.w3.org/2000/svg" viewBox="0 0 790.12 877.62">
  <defs>
    <style>
      .cls-1 {
        fill: #000;
        stroke-width: 0px;
      }
    </style>
  </defs>
  <g>
    <path class="cls-1" d="M150.55,108.8h-25.13l-12.15,70.22h-20.32l12.21-70.22h-24.71l2.84-16.06h70.04l-2.78,16.06Z"/>
    <path class="cls-1" d="M226.29,108.8h-25.13l-12.15,70.22h-20.32l12.21-70.22h-24.71l2.84-16.06h70.04l-2.78,16.06Z"/>
    <path class="cls-1" d="M308.23,144.65h-32.53l-5.98,34.37h-20.27l14.94-86.28h56.11l-2.78,16.06h-35.79l-3.43,19.85h32.53l-2.79,16Z"/>
    <path class="cls-1" d="M347.64,179.02c-.55-1.54-.83-3.47-.83-5.81-4.38,4.82-9.62,7.15-15.7,6.99-5.57-.08-10.19-1.93-13.87-5.57-3.67-3.63-5.39-8.04-5.16-13.21.2-6.95,3.1-12.3,8.72-16.03,5.6-3.73,13.27-5.6,22.99-5.6l6.51.12.72-3.61.24-3.14c-.16-3.59-1.95-5.45-5.39-5.57-4.27-.08-6.89,2.27-7.88,7.05l-19.55.06c.19-4.31,1.6-8.05,4.21-11.23,2.61-3.18,6.15-5.63,10.64-7.35,4.49-1.72,9.25-2.52,14.31-2.4,4.86.12,9.12,1.14,12.77,3.05,3.65,1.92,6.39,4.58,8.21,8,1.82,3.42,2.51,7.36,2.08,11.82l-4.8,30.16-.29,3.68c-.16,2.92.21,5.41,1.13,7.46l-.06,1.13h-18.96ZM336.5,166.11c3.99.16,7.48-1.6,10.49-5.28l1.95-10.31-5.03-.06c-3.12.08-5.81,1-8.06,2.76-2.25,1.76-3.58,4.16-3.97,7.2-.2,1.62.11,2.95.92,4,.81,1.05,2.04,1.61,3.7,1.69Z"/>
    <path class="cls-1" d="M420.82,132.98c-2.1-.31-4.11-.51-6.05-.59-5.85-.16-10.31,1.86-13.39,6.04l-7.23,40.59h-19.5l11.14-64.11,18.19-.06-1.48,8.41c4.19-6.48,9.13-9.72,14.82-9.72,1.62,0,3.63.28,6.04.83l-2.54,18.61Z"/>
    <path class="cls-1" d="M423.07,146.85c.75-6.44,2.51-12.26,5.3-17.48,2.79-5.21,6.27-9.15,10.46-11.82,4.19-2.67,8.93-3.96,14.23-3.88,6.44.16,11.3,2.47,14.58,6.93l2.07-5.74,18.02.06-10.49,61.63c-1.19,8.69-5,15.55-11.43,20.56-6.44,5.01-14.46,7.41-24.06,7.17-4.27-.08-8.39-.93-12.39-2.55-3.99-1.62-7.4-4.07-10.25-7.35l9.24-11.5c3.44,4.35,7.9,6.58,13.39,6.7,8.65.16,14.15-4.44,16.47-13.81l.47-1.96c-4.42,4.35-9.3,6.48-14.63,6.4-4.11-.04-7.73-1.08-10.85-3.11-3.12-2.03-5.57-4.97-7.35-8.8-1.77-3.83-2.78-8.1-3.02-12.8-.16-2.37-.07-5.25.24-8.65ZM442.33,153.19c0,3.63.65,6.46,1.96,8.47,1.3,2.02,3.2,3.06,5.69,3.14,3.68.16,7.01-1.27,10.02-4.27l5.04-27.2c-1.58-2.77-4.23-4.19-7.94-4.27-3.79-.08-6.97,1.53-9.54,4.83-2.57,3.3-4.19,7.64-4.86,13.01-.24,2.49-.36,4.58-.36,6.28Z"/>
    <path class="cls-1" d="M527.72,172.03c-4.78,5.65-10.55,8.39-17.31,8.24-6.28-.08-11.01-2.27-14.19-6.58-3.18-4.3-4.42-10.07-3.7-17.3l6.93-41.48h19.5l-7.05,41.77c-.12,1.15-.12,2.2,0,3.14.28,3.24,2.2,4.92,5.75,5.04,4.11.16,7.61-1.46,10.49-4.86l7.94-45.09h19.61l-11.14,64.11h-18.13l1.31-6.99Z"/>
    <path class="cls-1" d="M591.18,179.02c-.55-1.54-.83-3.47-.83-5.81-4.38,4.82-9.62,7.15-15.7,6.99-5.57-.08-10.19-1.93-13.87-5.57-3.67-3.63-5.39-8.04-5.16-13.21.2-6.95,3.1-12.3,8.72-16.03,5.6-3.73,13.27-5.6,22.99-5.6l6.51.12.72-3.61.24-3.14c-.16-3.59-1.95-5.45-5.39-5.57-4.27-.08-6.89,2.27-7.88,7.05l-19.55.06c.19-4.31,1.6-8.05,4.21-11.23,2.61-3.18,6.15-5.63,10.64-7.35,4.49-1.72,9.25-2.52,14.31-2.4,4.86.12,9.12,1.14,12.77,3.05,3.65,1.92,6.39,4.58,8.21,8,1.82,3.42,2.51,7.36,2.08,11.82l-4.8,30.16-.29,3.68c-.16,2.92.21,5.41,1.13,7.46l-.06,1.13h-18.96ZM580.04,166.11c3.99.16,7.48-1.6,10.49-5.28l1.95-10.31-5.03-.06c-3.12.08-5.81,1-8.06,2.76s-3.58,4.16-3.97,7.2c-.2,1.62.11,2.95.92,4,.81,1.05,2.04,1.61,3.7,1.69Z"/>
    <path class="cls-1" d="M638.66,179.02h-19.56l11.14-64.11h19.55l-11.14,64.11ZM631.96,98.73c-.08-2.88.94-5.29,3.05-7.23,2.11-1.93,4.67-2.9,7.67-2.9s5.58.87,7.61,2.61c2.03,1.74,3.09,4.01,3.17,6.81.08,2.92-.93,5.34-3.02,7.26s-4.66,2.87-7.7,2.87-5.48-.86-7.56-2.58c-2.07-1.72-3.15-4-3.23-6.84Z"/>
    <path class="cls-1" d="M687.18,160.65c.51-2.61-1.51-4.56-6.05-5.87l-4.21-1.07c-6.87-1.82-11.91-4.36-15.11-7.64-3.2-3.28-4.7-7.17-4.5-11.68.2-6.16,2.93-11.17,8.21-15.02,5.28-3.85,11.7-5.74,19.29-5.66,7.55.08,13.65,1.99,18.34,5.75,4.68,3.75,7.06,8.81,7.14,15.17l-19.44-.06c.16-5.06-2.07-7.59-6.69-7.59-1.98,0-3.81.58-5.51,1.75-1.7,1.17-2.71,2.72-3.02,4.65-.67,3.2,2.15,5.39,8.47,6.58,5.49,1.3,9.74,2.81,12.74,4.53,3,1.72,5.29,3.84,6.87,6.37,1.58,2.53,2.31,5.57,2.2,9.13-.12,3.87-1.38,7.33-3.79,10.37-2.41,3.04-5.9,5.47-10.46,7.29-4.56,1.82-9.51,2.67-14.84,2.55-4.62-.04-8.92-1.01-12.89-2.9-3.97-1.9-7.07-4.48-9.31-7.74-2.23-3.26-3.38-7-3.46-11.23l18.13.12c.08,5.69,2.92,8.49,8.53,8.41,2.41,0,4.46-.54,6.16-1.63,1.7-1.09,2.77-2.62,3.2-4.59Z"/>
  </g>
  <g>
    <path class="cls-1" d="M567.91,369.46c.6,36.11-113.22,77.79-208.54,77.79-73.89,0-138.79-14.33-175.83-35.95,36.78,10.67,85.15,17.15,138.12,17.15,93.98,0,208.58-35.7,208.54-68.39-.03-24.13-62.6-43.99-120.14-57.28-5.72-1.32-11.4-2.58-16.96-3.77-.98-.91-1.96-1.94-2.92-3.05,7.19,1.34,14.65,2.77,22.26,4.33,70.91,14.46,154.95,38.31,155.46,69.16Z"/>
    <ellipse class="cls-1" cx="375.76" cy="371.03" rx="32.08" ry="26.24" transform="translate(-119.49 554.3) rotate(-64.94)"/>
    <path class="cls-1" d="M428.87,301.07c-.01,1.31-.2,2.54-.57,3.64-.18.56-.4,1.09-.68,1.58-2.53,4.6-8.49,5.66-16,3.64-1.38-.37-2.81-.84-4.29-1.42-5.95-2.32-12.57-6.29-19.07-11.72-16.88-14.1-26.62-32.69-21.77-41.54,4.86-8.85,22.48-4.6,39.36,9.5,14.04,11.72,23.14,26.56,23.01,36.31Z"/>
    <path class="cls-1" d="M500.27,716.69c-.41,3.01-12.57.69-32.53,6.75-20.07,6.09-28.58,14.74-30.29,12.73-.72-.85-.1-3.42,1.66-6.71,8.35-22.6,44.53-98.26,11.97-157.55-24.61-44.83-84.23-72.49-133.74-65.21-32.03,4.72-56.62,23.59-73.02,39,12.11-2.8,24.01,2.04,23.91,3.92-.09,1.73-10.3.13-24.79,5.45-14.91,5.47-21.69,13.62-22.82,12.43-.19-.2-.21-.64-.06-1.27-1.79-6.93,20.93-54,65.23-73.79,64.28-28.73,166.11,3.46,196.19,76.48,21.78,52.85-1.53,108.91-21.76,140.82,2.34-1.05,4.84-1.9,7.46-2.44,16.36-3.4,33.08,5.77,32.59,9.39Z"/>
  </g>
  <path class="cls-1" d="M393.79,877.62l-5.18-3.29c-1.84-1.17-3.71-2.39-5.61-3.65l-2.51-1.65c-89.68-59.92-213.96-167.26-297.17-338.71C-21.33,314.44-5,110.33,14.05,7.87L15.49.12l16.42-.12,742.63.04,1.44,5.34c19.19,102.74,35.65,307.43-69.79,523.95h0c-84.02,172.51-209.12,279.93-299.27,339.68-2.72,1.84-5.37,3.59-7.97,5.27l-5.14,3.34ZM31.43,19.11C13.49,121.56.83,316.33,100.52,522c81.34,167.58,202.87,272.55,290.5,331.1l2.48,1.62c.07.05.14.09.21.14.85-.57,1.72-1.15,2.59-1.74,88.22-58.46,210.57-163.53,292.7-332.15h0c100.43-206.24,87.62-400.18,69.54-502.93h0L31.43,19.11Z"/>
</svg>