<?xml version="1.0" encoding="UTF-8"?>
<svg id="Calque_1" data-name="Calque 1" xmlns="http://www.w3.org/2000/svg" viewBox="0 0 860.68 956">
  <defs>
    <style>
      .cls-1 {
        fill: #0f5e35;
        stroke-width: 0px;
      }
    </style>
  </defs>
  <g>
    <path class="cls-1" d="M193.76,149.9h-24.31l-11.76,67.95h-19.67l11.81-67.95h-23.91l2.75-15.54h67.77l-2.69,15.54Z"/>
    <path class="cls-1" d="M267.03,149.9h-24.31l-11.76,67.95h-19.67l11.81-67.95h-23.91l2.75-15.54h67.77l-2.69,15.54Z"/>
    <path class="cls-1" d="M346.33,184.59h-31.47l-5.79,33.26h-19.61l14.45-83.48h54.29l-2.69,15.54h-34.64l-3.32,19.21h31.47l-2.7,15.48Z"/>
    <path class="cls-1" d="M384.46,217.85c-.54-1.49-.81-3.36-.81-5.62-4.24,4.66-9.31,6.92-15.19,6.77-5.39-.08-9.86-1.87-13.42-5.39-3.55-3.52-5.22-7.78-4.99-12.78.19-6.73,3-11.9,8.43-15.51,5.42-3.61,12.84-5.42,22.25-5.42l6.3.11.69-3.5.23-3.04c-.16-3.48-1.89-5.27-5.22-5.39-4.13-.08-6.67,2.2-7.63,6.82l-18.92.06c.19-4.17,1.55-7.79,4.07-10.87,2.52-3.08,5.95-5.44,10.29-7.11,4.34-1.66,8.95-2.44,13.84-2.32,4.7.11,8.82,1.1,12.36,2.95,3.53,1.85,6.18,4.43,7.94,7.74,1.76,3.3,2.43,7.12,2.01,11.44l-4.65,29.18-.28,3.56c-.16,2.83.2,5.24,1.09,7.22l-.06,1.09h-18.35ZM373.68,205.35c3.86.15,7.24-1.55,10.15-5.1l1.89-9.98-4.87-.06c-3.02.08-5.62.97-7.8,2.67-2.18,1.7-3.46,4.02-3.84,6.97-.19,1.57.1,2.86.89,3.87.78,1.01,1.97,1.56,3.58,1.63Z"/>
    <path class="cls-1" d="M455.27,173.29c-2.03-.3-3.98-.5-5.85-.57-5.66-.15-9.97,1.8-12.96,5.85l-6.99,39.28h-18.86l10.78-62.04,17.6-.06-1.43,8.14c4.05-6.27,8.83-9.41,14.34-9.41,1.57,0,3.52.27,5.84.8l-2.46,18Z"/>
    <path class="cls-1" d="M457.45,186.71c.72-6.23,2.43-11.87,5.13-16.91,2.7-5.04,6.07-8.86,10.12-11.44,4.05-2.58,8.64-3.83,13.77-3.75,6.23.15,10.93,2.39,14.1,6.71l2-5.56,17.43.06-10.15,59.63c-1.15,8.41-4.83,15.04-11.06,19.9-6.24,4.85-13.99,7.17-23.28,6.94-4.13-.08-8.12-.9-11.98-2.46-3.86-1.57-7.16-3.94-9.92-7.11l8.94-11.12c3.33,4.2,7.64,6.37,12.96,6.48,8.37.15,13.69-4.3,15.94-13.36l.46-1.89c-4.28,4.21-9,6.27-14.16,6.19-3.98-.04-7.48-1.04-10.5-3.01-3.02-1.97-5.39-4.81-7.11-8.51-1.72-3.71-2.69-7.84-2.93-12.38-.15-2.29-.07-5.08.23-8.37ZM476.08,192.85c0,3.52.63,6.25,1.9,8.2,1.26,1.95,3.09,2.96,5.5,3.04,3.56.15,6.78-1.22,9.69-4.13l4.88-26.32c-1.53-2.68-4.09-4.05-7.69-4.13-3.67-.08-6.75,1.48-9.23,4.67-2.49,3.19-4.06,7.39-4.7,12.59-.23,2.41-.35,4.44-.35,6.08Z"/>
    <path class="cls-1" d="M558.7,211.08c-4.63,5.47-10.21,8.12-16.75,7.97-6.07-.08-10.65-2.2-13.73-6.37-3.08-4.17-4.27-9.75-3.58-16.74l6.71-40.13h18.86l-6.83,40.41c-.11,1.11-.11,2.12,0,3.04.27,3.14,2.12,4.76,5.56,4.88,3.98.15,7.36-1.42,10.15-4.71l7.69-43.63h18.98l-10.78,62.04h-17.55l1.26-6.77Z"/>
    <path class="cls-1" d="M620.11,217.85c-.54-1.49-.81-3.36-.81-5.62-4.24,4.66-9.31,6.92-15.19,6.77-5.39-.08-9.86-1.87-13.42-5.39-3.55-3.52-5.22-7.78-4.99-12.78.19-6.73,3-11.9,8.43-15.51,5.42-3.61,12.84-5.42,22.25-5.42l6.3.11.69-3.5.23-3.04c-.16-3.48-1.89-5.27-5.22-5.39-4.13-.08-6.67,2.2-7.63,6.82l-18.92.06c.19-4.17,1.55-7.79,4.07-10.87,2.52-3.08,5.95-5.44,10.29-7.11,4.34-1.66,8.95-2.44,13.84-2.32,4.7.11,8.82,1.1,12.36,2.95,3.53,1.85,6.18,4.43,7.94,7.74,1.76,3.3,2.43,7.12,2.01,11.44l-4.65,29.18-.28,3.56c-.16,2.83.2,5.24,1.09,7.22l-.06,1.09h-18.35ZM609.33,205.35c3.86.15,7.24-1.55,10.15-5.1l1.89-9.98-4.87-.06c-3.02.08-5.62.97-7.8,2.67s-3.46,4.02-3.84,6.97c-.19,1.57.1,2.86.89,3.87.78,1.01,1.97,1.56,3.58,1.63Z"/>
    <path class="cls-1" d="M666.05,217.85h-18.92l10.78-62.04h18.92l-10.77,62.04ZM659.56,140.16c-.08-2.79.91-5.12,2.96-7,2.04-1.87,4.52-2.81,7.42-2.81s5.4.84,7.37,2.52,2.99,3.88,3.07,6.59c.08,2.83-.9,5.17-2.93,7.02s-4.51,2.78-7.45,2.78-5.3-.83-7.31-2.49c-2-1.66-3.05-3.87-3.12-6.62Z"/>
    <path class="cls-1" d="M713,200.07c.49-2.52-1.46-4.42-5.85-5.68l-4.07-1.03c-6.65-1.76-11.53-4.22-14.62-7.39-3.1-3.18-4.55-6.94-4.36-11.3.19-5.96,2.84-10.81,7.94-14.53,5.1-3.73,11.32-5.55,18.67-5.47,7.3.08,13.21,1.93,17.74,5.56,4.53,3.63,6.83,8.52,6.91,14.68l-18.81-.06c.16-4.89-2-7.34-6.48-7.34-1.91,0-3.69.57-5.33,1.69-1.64,1.13-2.62,2.63-2.93,4.5-.65,3.09,2.08,5.22,8.2,6.36,5.32,1.26,9.43,2.72,12.33,4.39,2.91,1.66,5.12,3.72,6.65,6.16,1.53,2.45,2.24,5.39,2.12,8.83-.11,3.74-1.34,7.09-3.67,10.03-2.33,2.94-5.71,5.29-10.12,7.05-4.41,1.76-9.2,2.58-14.36,2.46-4.47-.04-8.63-.98-12.47-2.81-3.84-1.84-6.84-4.33-9-7.48-2.15-3.15-3.27-6.77-3.35-10.86l17.55.11c.08,5.5,2.83,8.22,8.26,8.14,2.33,0,4.32-.52,5.96-1.57,1.64-1.05,2.68-2.53,3.1-4.45Z"/>
  </g>
  <g>
    <path class="cls-1" d="M597.59,402.11c.58,34.94-109.56,75.27-201.78,75.27-71.49,0-134.3-13.87-170.14-34.79,35.59,10.32,82.39,16.6,133.65,16.6,90.94,0,201.82-34.55,201.78-66.17-.03-23.35-60.57-42.56-116.25-55.42-5.54-1.28-11.03-2.5-16.41-3.64-.95-.88-1.9-1.88-2.82-2.95,6.95,1.29,14.17,2.68,21.54,4.19,68.61,13.99,149.93,37.07,150.43,66.92Z"/>
    <ellipse class="cls-1" cx="411.66" cy="403.63" rx="31.04" ry="25.39" transform="translate(-128.32 605.62) rotate(-64.94)"/>
    <path class="cls-1" d="M463.06,335.94c-.01,1.27-.2,2.45-.55,3.53-.17.54-.39,1.05-.66,1.53-2.44,4.45-8.21,5.48-15.49,3.53-1.33-.35-2.72-.82-4.15-1.37-5.75-2.24-12.16-6.09-18.45-11.34-16.33-13.65-25.76-31.64-21.06-40.2,4.7-8.56,21.75-4.45,38.09,9.19,13.58,11.34,22.39,25.7,22.27,35.14Z"/>
    <path class="cls-1" d="M532.14,738.1c-.4,2.91-12.16.67-31.48,6.53-19.42,5.89-27.65,14.26-29.31,12.32-.7-.82-.1-3.31,1.61-6.49,8.08-21.87,43.09-95.08,11.58-152.45-23.81-43.38-81.5-70.14-129.41-63.1-30.99,4.57-54.79,22.83-70.65,37.74,11.72-2.71,23.23,1.97,23.14,3.79-.09,1.67-9.97.13-23.99,5.27-14.43,5.29-20.99,13.18-22.08,12.03-.18-.19-.2-.62-.06-1.23-1.73-6.71,20.25-52.25,63.12-71.4,62.2-27.8,160.73,3.35,189.84,74,21.07,51.14-1.48,105.38-21.06,136.26,2.26-1.02,4.68-1.84,7.22-2.36,15.83-3.29,32.01,5.58,31.53,9.09Z"/>
  </g>
  <path class="cls-1" d="M429.12,893.82l-5.01-3.18c-1.78-1.13-3.59-2.32-5.43-3.53l-2.43-1.59c-86.78-57.98-207.03-161.84-287.54-327.74C27.44,348.87,43.24,151.37,61.67,52.24l1.4-7.5,15.88-.12,718.57.04,1.39,5.17c18.57,99.41,34.5,297.47-67.53,506.98h0c-81.3,166.92-202.34,270.87-289.58,328.67-2.64,1.78-5.2,3.47-7.71,5.1l-4.98,3.24ZM78.49,63.11c-17.37,99.13-29.61,287.59,66.84,486.6,78.7,162.15,196.3,263.72,281.09,320.37l2.4,1.57c.07.05.13.09.2.14.82-.55,1.66-1.11,2.51-1.68,85.37-56.57,203.75-158.24,283.22-321.39h0c97.18-199.56,84.78-387.22,67.28-486.64h0l-703.55,1.04Z"/>
  <path class="cls-1" d="M428.96,956l-5.64-3.58c-2.01-1.27-4.05-2.61-6.11-3.97l-2.74-1.79c-97.69-65.27-233.06-182.2-323.7-368.95C-23.23,342.52-5.45,120.18,15.3,8.58L16.87.13l17.88-.13,808.95.04,1.56,5.82c20.9,111.92,38.84,334.89-76.02,570.74h0c-91.52,187.92-227.79,304.93-326,370.01-2.97,2-5.85,3.91-8.68,5.74l-5.6,3.64ZM34.24,20.82C14.69,132.42.9,344.58,109.49,568.62c88.6,182.55,220.99,296.89,316.44,360.67l2.7,1.76c.07.05.15.1.23.15.93-.62,1.87-1.25,2.83-1.89,96.1-63.68,229.38-178.14,318.84-361.81h0c109.4-224.66,95.45-435.92,75.75-547.84h0l-792.03,1.17Z"/>
</svg>