<?xml version="1.0" encoding="UTF-8"?>
<svg id="Calque_1" data-name="Calque 1" xmlns="http://www.w3.org/2000/svg" viewBox="0 0 853.48 948">
  <defs>
    <style>
      .cls-1 {
        fill: #000;
        stroke-width: 0px;
      }
    </style>
  </defs>
  <path class="cls-1" d="M375.59,177.21c-3.12.08-5.81,1-8.06,2.76-2.26,1.76-3.58,4.16-3.97,7.2-.2,1.62.1,2.96.92,4,.81,1.05,2.04,1.61,3.7,1.69,3.99.16,7.48-1.6,10.49-5.28l1.95-10.31-5.03-.06ZM375.59,177.21c-3.12.08-5.81,1-8.06,2.76-2.26,1.76-3.58,4.16-3.97,7.2-.2,1.62.1,2.96.92,4,.81,1.05,2.04,1.61,3.7,1.69,3.99.16,7.48-1.6,10.49-5.28l1.95-10.31-5.03-.06ZM375.59,177.21c-3.12.08-5.81,1-8.06,2.76-2.26,1.76-3.58,4.16-3.97,7.2-.2,1.62.1,2.96.92,4,.81,1.05,2.04,1.61,3.7,1.69,3.99.16,7.48-1.6,10.49-5.28l1.95-10.31-5.03-.06ZM488.76,155.82c-3.79-.07-6.97,1.53-9.53,4.83-2.57,3.3-4.2,7.64-4.86,13.01-.24,2.49-.36,4.58-.36,6.28,0,3.63.65,6.46,1.96,8.47,1.3,2.02,3.19,3.07,5.68,3.15,3.68.15,7.01-1.27,10.02-4.27l5.04-27.2c-1.58-2.76-4.23-4.19-7.95-4.27ZM375.59,177.21c-3.12.08-5.81,1-8.06,2.76-2.26,1.76-3.58,4.16-3.97,7.2-.2,1.62.1,2.96.92,4,.81,1.05,2.04,1.61,3.7,1.69,3.99.16,7.48-1.6,10.49-5.28l1.95-10.31-5.03-.06ZM488.76,155.82c-3.79-.07-6.97,1.53-9.53,4.83-2.57,3.3-4.2,7.64-4.86,13.01-.24,2.49-.36,4.58-.36,6.28,0,3.63.65,6.46,1.96,8.47,1.3,2.02,3.19,3.07,5.68,3.15,3.68.15,7.01-1.27,10.02-4.27l5.04-27.2c-1.58-2.76-4.23-4.19-7.95-4.27ZM375.59,177.21c-3.12.08-5.81,1-8.06,2.76-2.26,1.76-3.58,4.16-3.97,7.2-.2,1.62.1,2.96.92,4,.81,1.05,2.04,1.61,3.7,1.69,3.99.16,7.48-1.6,10.49-5.28l1.95-10.31-5.03-.06ZM488.76,155.82c-3.79-.07-6.97,1.53-9.53,4.83-2.57,3.3-4.2,7.64-4.86,13.01-.24,2.49-.36,4.58-.36,6.28,0,3.63.65,6.46,1.96,8.47,1.3,2.02,3.19,3.07,5.68,3.15,3.68.15,7.01-1.27,10.02-4.27l5.04-27.2c-1.58-2.76-4.23-4.19-7.95-4.27ZM619.13,177.21c-3.12.08-5.81,1-8.06,2.76s-3.58,4.16-3.97,7.2c-.2,1.62.11,2.96.92,4,.81,1.05,2.04,1.61,3.7,1.69,3.99.16,7.49-1.6,10.49-5.28l1.95-10.31-5.03-.06ZM375.59,177.21c-3.12.08-5.81,1-8.06,2.76-2.26,1.76-3.58,4.16-3.97,7.2-.2,1.62.1,2.96.92,4,.81,1.05,2.04,1.61,3.7,1.69,3.99.16,7.48-1.6,10.49-5.28l1.95-10.31-5.03-.06ZM488.76,155.82c-3.79-.07-6.97,1.53-9.53,4.83-2.57,3.3-4.2,7.64-4.86,13.01-.24,2.49-.36,4.58-.36,6.28,0,3.63.65,6.46,1.96,8.47,1.3,2.02,3.19,3.07,5.68,3.15,3.68.15,7.01-1.27,10.02-4.27l5.04-27.2c-1.58-2.76-4.23-4.19-7.95-4.27ZM619.13,177.21c-3.12.08-5.81,1-8.06,2.76s-3.58,4.16-3.97,7.2c-.2,1.62.11,2.96.92,4,.81,1.05,2.04,1.61,3.7,1.69,3.99.16,7.49-1.6,10.49-5.28l1.95-10.31-5.03-.06ZM375.59,177.21c-3.12.08-5.81,1-8.06,2.76-2.26,1.76-3.58,4.16-3.97,7.2-.2,1.62.1,2.96.92,4,.81,1.05,2.04,1.61,3.7,1.69,3.99.16,7.48-1.6,10.49-5.28l1.95-10.31-5.03-.06ZM488.76,155.82c-3.79-.07-6.97,1.53-9.53,4.83-2.57,3.3-4.2,7.64-4.86,13.01-.24,2.49-.36,4.58-.36,6.28,0,3.63.65,6.46,1.96,8.47,1.3,2.02,3.19,3.07,5.68,3.15,3.68.15,7.01-1.27,10.02-4.27l5.04-27.2c-1.58-2.76-4.23-4.19-7.95-4.27ZM619.13,177.21c-3.12.08-5.81,1-8.06,2.76s-3.58,4.16-3.97,7.2c-.2,1.62.11,2.96.92,4,.81,1.05,2.04,1.61,3.7,1.69,3.99.16,7.49-1.6,10.49-5.28l1.95-10.31-5.03-.06ZM375.59,177.21c-3.12.08-5.81,1-8.06,2.76-2.26,1.76-3.58,4.16-3.97,7.2-.2,1.62.1,2.96.92,4,.81,1.05,2.04,1.61,3.7,1.69,3.99.16,7.48-1.6,10.49-5.28l1.95-10.31-5.03-.06ZM488.76,155.82c-3.79-.07-6.97,1.53-9.53,4.83-2.57,3.3-4.2,7.64-4.86,13.01-.24,2.49-.36,4.58-.36,6.28,0,3.63.65,6.46,1.96,8.47,1.3,2.02,3.19,3.07,5.68,3.15,3.68.15,7.01-1.27,10.02-4.27l5.04-27.2c-1.58-2.76-4.23-4.19-7.95-4.27ZM619.13,177.21c-3.12.08-5.81,1-8.06,2.76s-3.58,4.16-3.97,7.2c-.2,1.62.11,2.96.92,4,.81,1.05,2.04,1.61,3.7,1.69,3.99.16,7.49-1.6,10.49-5.28l1.95-10.31-5.03-.06ZM375.59,177.21c-3.12.08-5.81,1-8.06,2.76-2.26,1.76-3.58,4.16-3.97,7.2-.2,1.62.1,2.96.92,4,.81,1.05,2.04,1.61,3.7,1.69,3.99.16,7.48-1.6,10.49-5.28l1.95-10.31-5.03-.06ZM488.76,155.82c-3.79-.07-6.97,1.53-9.53,4.83-2.57,3.3-4.2,7.64-4.86,13.01-.24,2.49-.36,4.58-.36,6.28,0,3.63.65,6.46,1.96,8.47,1.3,2.02,3.19,3.07,5.68,3.15,3.68.15,7.01-1.27,10.02-4.27l5.04-27.2c-1.58-2.76-4.23-4.19-7.95-4.27ZM619.13,177.21c-3.12.08-5.81,1-8.06,2.76s-3.58,4.16-3.97,7.2c-.2,1.62.11,2.96.92,4,.81,1.05,2.04,1.61,3.7,1.69,3.99.16,7.49-1.6,10.49-5.28l1.95-10.31-5.03-.06ZM488.76,155.82c-3.79-.07-6.97,1.53-9.53,4.83-2.57,3.3-4.2,7.64-4.86,13.01-.24,2.49-.36,4.58-.36,6.28,0,3.63.65,6.46,1.96,8.47,1.3,2.02,3.19,3.07,5.68,3.15,3.68.15,7.01-1.27,10.02-4.27l5.04-27.2c-1.58-2.76-4.23-4.19-7.95-4.27ZM375.59,177.21c-3.12.08-5.81,1-8.06,2.76-2.26,1.76-3.58,4.16-3.97,7.2-.2,1.62.1,2.96.92,4,.81,1.05,2.04,1.61,3.7,1.69,3.99.16,7.48-1.6,10.49-5.28l1.95-10.31-5.03-.06ZM619.13,177.21c-3.12.08-5.81,1-8.06,2.76s-3.58,4.16-3.97,7.2c-.2,1.62.11,2.96.92,4,.81,1.05,2.04,1.61,3.7,1.69,3.99.16,7.49-1.6,10.49-5.28l1.95-10.31-5.03-.06ZM375.59,177.21c-3.12.08-5.81,1-8.06,2.76-2.26,1.76-3.58,4.16-3.97,7.2-.2,1.62.1,2.96.92,4,.81,1.05,2.04,1.61,3.7,1.69,3.99.16,7.48-1.6,10.49-5.28l1.95-10.31-5.03-.06ZM488.76,155.82c-3.79-.07-6.97,1.53-9.53,4.83-2.57,3.3-4.2,7.64-4.86,13.01-.24,2.49-.36,4.58-.36,6.28,0,3.63.65,6.46,1.96,8.47,1.3,2.02,3.19,3.07,5.68,3.15,3.68.15,7.01-1.27,10.02-4.27l5.04-27.2c-1.58-2.76-4.23-4.19-7.95-4.27ZM619.13,177.21c-3.12.08-5.81,1-8.06,2.76s-3.58,4.16-3.97,7.2c-.2,1.62.11,2.96.92,4,.81,1.05,2.04,1.61,3.7,1.69,3.99.16,7.49-1.6,10.49-5.28l1.95-10.31-5.03-.06ZM488.76,155.82c-3.79-.07-6.97,1.53-9.53,4.83-2.57,3.3-4.2,7.64-4.86,13.01-.24,2.49-.36,4.58-.36,6.28,0,3.63.65,6.46,1.96,8.47,1.3,2.02,3.19,3.07,5.68,3.15,3.68.15,7.01-1.27,10.02-4.27l5.04-27.2c-1.58-2.76-4.23-4.19-7.95-4.27ZM375.59,177.21c-3.12.08-5.81,1-8.06,2.76-2.26,1.76-3.58,4.16-3.97,7.2-.2,1.62.1,2.96.92,4,.81,1.05,2.04,1.61,3.7,1.69,3.99.16,7.48-1.6,10.49-5.28l1.95-10.31-5.03-.06ZM619.13,177.21c-3.12.08-5.81,1-8.06,2.76s-3.58,4.16-3.97,7.2c-.2,1.62.11,2.96.92,4,.81,1.05,2.04,1.61,3.7,1.69,3.99.16,7.49-1.6,10.49-5.28l1.95-10.31-5.03-.06ZM838.19,5.81l-1.55-5.77-802.18-.04-17.73.13-1.56,8.37C-5.4,119.17-23.04,339.65,90,572.87c89.88,185.19,224.12,301.14,321,365.86l2.71,1.78c2.05,1.35,4.07,2.68,6.06,3.94l5.6,3.55,5.56-3.61c2.8-1.82,5.66-3.71,8.61-5.7,48.69-32.27,106.82-77.41,164.12-137.78,57.29-60.37,113.77-135.96,159.14-229.13,113.9-233.88,96.12-454.99,75.39-565.97ZM590.52,768.21c-53.04,55.89-106.85,97.68-151.93,127.55-2.73,1.84-5.38,3.59-7.97,5.27l-5.15,3.35-5.18-3.29c-1.84-1.17-3.71-2.4-5.61-3.65l-2.51-1.64c-89.69-59.92-213.96-167.26-297.17-338.71C10.35,341.19,26.68,137.08,45.73,34.62l1.44-7.75,16.41-.12,742.63.04,1.44,5.34c19.19,102.75,35.65,307.43-69.8,523.95-42,86.26-94.28,156.24-147.33,212.13ZM63.11,45.87c-17.94,102.44-30.6,297.21,69.08,502.88,81.34,167.58,202.88,272.55,290.5,331.1l2.48,1.62c.07.04.13.09.21.14.85-.57,1.72-1.15,2.59-1.74,88.23-58.46,210.58-163.53,292.7-332.15,63.95-131.3,81.98-257.63,81.98-358.6,0-57.63-5.87-107-12.44-144.33l-727.1,1.08ZM524.2,183.14l6.93-41.48h19.5l-7.06,41.77c-.11,1.15-.11,2.19,0,3.14.28,3.24,2.2,4.93,5.75,5.05,4.11.15,7.61-1.47,10.49-4.87l7.94-45.09h19.62l-11.14,64.12h-18.14l1.31-7c-4.78,5.65-10.55,8.4-17.31,8.24-6.27-.08-11.01-2.27-14.19-6.58-3.18-4.3-4.41-10.07-3.7-17.3ZM470.51,144.3c4.19-2.67,8.93-3.96,14.23-3.88,6.44.15,11.29,2.46,14.57,6.93l2.07-5.75,18.02.06-10.49,61.63c-1.19,8.69-4.99,15.54-11.43,20.56-6.45,5.02-14.47,7.41-24.06,7.17-4.27-.08-8.4-.93-12.39-2.55s-7.4-4.07-10.25-7.35l9.24-11.49c3.44,4.34,7.9,6.58,13.4,6.69,8.65.16,14.14-4.44,16.47-13.8l.47-1.96c-4.42,4.35-9.3,6.48-14.63,6.4-4.11-.04-7.73-1.07-10.85-3.11-3.12-2.03-5.57-4.97-7.35-8.8-1.77-3.83-2.78-8.1-3.02-12.8-.15-2.37-.07-5.25.24-8.65.75-6.44,2.52-12.26,5.3-17.48,2.79-5.21,6.27-9.15,10.46-11.82ZM417.48,141.66l18.19-.06-1.48,8.42c4.18-6.48,9.12-9.72,14.82-9.72,1.61,0,3.63.27,6.04.83l-2.55,18.6c-2.09-.31-4.11-.51-6.04-.59-5.85-.16-10.31,1.86-13.4,6.05l-7.23,40.59h-19.49l11.14-64.12ZM364.95,142.88c4.49-1.72,9.25-2.52,14.31-2.4,4.86.12,9.12,1.13,12.77,3.05,3.65,1.91,6.39,4.58,8.2,8,1.82,3.41,2.52,7.35,2.08,11.82l-4.8,30.16-.29,3.68c-.16,2.92.21,5.41,1.12,7.46l-.06,1.13h-18.96c-.55-1.54-.83-3.48-.83-5.81-4.38,4.82-9.62,7.15-15.7,6.99-5.57-.08-10.19-1.93-13.87-5.57-3.67-3.63-5.39-8.04-5.16-13.21.2-6.95,3.11-12.3,8.72-16.03,5.6-3.74,13.27-5.6,22.99-5.6l6.51.12.72-3.62.23-3.14c-.16-3.59-1.95-5.45-5.39-5.57-4.27-.08-6.89,2.27-7.88,7.05l-19.55.06c.19-4.3,1.6-8.05,4.2-11.23,2.61-3.18,6.16-5.62,10.64-7.34ZM421.02,368.71c13.13,6.14,17.69,24.13,10.19,40.18-7.5,16.05-24.23,24.09-37.36,17.95-13.13-6.14-17.69-24.12-10.19-40.18,7.5-16.05,24.23-24.08,37.36-17.95ZM296.07,119.5h56.11l-2.78,16.06h-35.8l-3.43,19.85h32.53l-2.79,16h-32.53l-5.98,34.37h-20.27l14.94-86.28ZM182.23,135.56h-25.12l-12.15,70.22h-20.32l12.2-70.22h-24.71l2.84-16.06h70.04l-2.78,16.06ZM187.86,135.56l2.85-16.06h70.04l-2.78,16.06h-25.13l-12.15,70.22h-20.32l12.2-70.22h-24.71ZM499.42,750.19c-20.07,6.09-28.58,14.74-30.29,12.73-.72-.85-.1-3.42,1.66-6.71,8.35-22.6,44.53-98.26,11.97-157.55-24.61-44.83-84.23-72.49-133.74-65.21-32.03,4.72-56.62,23.59-73.02,39,12.11-2.8,24.01,2.04,23.91,3.92-.09,1.73-10.3.13-24.79,5.45-14.91,5.47-21.69,13.62-22.82,12.43-.19-.2-.21-.64-.06-1.27-1.79-6.93,20.93-54,65.23-73.79,64.28-28.73,166.11,3.46,196.19,76.48,21.78,52.85-1.53,108.91-21.76,140.82,2.34-1.05,4.84-1.9,7.46-2.44,16.36-3.4,33.08,5.77,32.59,9.39-.41,3.01-12.57.69-32.53,6.75ZM391.05,474c-73.89,0-138.8-14.34-175.84-35.95,36.79,10.66,85.15,17.15,138.13,17.15,93.98,0,208.57-35.71,208.53-68.39-.03-21.74-50.8-40.01-102.94-53.13-2.72,4.06-8.47,4.93-15.63,3.02-1.38-.37-2.81-.85-4.29-1.42-5.94-2.32-12.56-6.29-19.07-11.72-16.88-14.1-26.62-32.7-21.76-41.55,4.86-8.85,22.48-4.59,39.36,9.5,14.04,11.72,23.14,26.56,23.01,36.31-.01.93-.1,1.81-.29,2.63,66.91,14.68,138.85,37.22,139.32,65.76.61,36.11-113.22,77.79-208.53,77.79ZM645.86,163.35l-4.81,30.16-.29,3.68c-.16,2.92.21,5.41,1.13,7.46l-.07,1.13h-18.96c-.55-1.54-.83-3.48-.83-5.81-4.38,4.82-9.62,7.15-15.7,6.99-5.57-.08-10.19-1.93-13.87-5.57-3.67-3.63-5.39-8.04-5.15-13.21.19-6.95,3.1-12.3,8.71-16.03,5.61-3.74,13.27-5.6,22.99-5.6l6.52.12.71-3.62.24-3.14c-.16-3.59-1.96-5.45-5.4-5.57-4.26-.08-6.89,2.27-7.88,7.05l-19.55.06c.19-4.3,1.6-8.05,4.21-11.23,2.6-3.18,6.15-5.62,10.63-7.34,4.49-1.72,9.25-2.52,14.31-2.4,4.86.12,9.12,1.13,12.77,3.05,3.65,1.91,6.39,4.58,8.21,8,1.81,3.41,2.51,7.35,2.08,11.82ZM670.33,205.78h-19.55l11.14-64.12h19.55l-11.14,64.12ZM674.42,134.91c-2.96,0-5.48-.87-7.56-2.58-2.07-1.72-3.14-4-3.23-6.84-.08-2.89.94-5.3,3.06-7.24,2.11-1.93,4.67-2.9,7.67-2.9s5.58.87,7.61,2.61c2.04,1.74,3.1,4.01,3.18,6.81.08,2.93-.93,5.35-3.03,7.26-2.09,1.92-4.66,2.88-7.7,2.88ZM715.84,153.75c-1.98,0-3.81.58-5.51,1.75-1.7,1.16-2.71,2.71-3.03,4.65-.67,3.2,2.16,5.39,8.48,6.58,5.49,1.3,9.74,2.81,12.74,4.53,3,1.72,5.29,3.84,6.87,6.37,1.58,2.53,2.32,5.57,2.2,9.13-.12,3.87-1.38,7.32-3.8,10.37-2.4,3.04-5.89,5.47-10.45,7.28-4.56,1.82-9.52,2.67-14.85,2.55-4.62-.04-8.92-1.01-12.89-2.9-3.97-1.9-7.07-4.48-9.3-7.74-2.23-3.25-3.39-7-3.47-11.22l18.14.11c.08,5.69,2.92,8.5,8.53,8.42,2.41,0,4.46-.54,6.16-1.63,1.7-1.09,2.77-2.62,3.2-4.59.51-2.61-1.5-4.57-6.04-5.87l-4.21-1.07c-6.87-1.81-11.91-4.36-15.11-7.64-3.2-3.28-4.7-7.17-4.5-11.67.2-6.17,2.93-11.17,8.2-15.02,5.28-3.86,11.7-5.74,19.29-5.66,7.55.08,13.66,1.99,18.34,5.75,4.68,3.75,7.06,8.8,7.14,15.16l-19.44-.05c.16-5.06-2.07-7.59-6.69-7.59ZM611.07,179.97c-2.25,1.76-3.58,4.16-3.97,7.2-.2,1.62.11,2.96.92,4,.81,1.05,2.04,1.61,3.7,1.69,3.99.16,7.49-1.6,10.49-5.28l1.95-10.31-5.03-.06c-3.12.08-5.81,1-8.06,2.76ZM481.65,191.56c3.68.15,7.01-1.27,10.02-4.27l5.04-27.2c-1.58-2.76-4.23-4.19-7.95-4.27-3.79-.07-6.97,1.53-9.53,4.83-2.57,3.3-4.2,7.64-4.86,13.01-.24,2.49-.36,4.58-.36,6.28,0,3.63.65,6.46,1.96,8.47,1.3,2.02,3.19,3.07,5.68,3.15ZM367.53,179.97c-2.26,1.76-3.58,4.16-3.97,7.2-.2,1.62.1,2.96.92,4,.81,1.05,2.04,1.61,3.7,1.69,3.99.16,7.48-1.6,10.49-5.28l1.95-10.31-5.03-.06c-3.12.08-5.81,1-8.06,2.76ZM619.13,177.21c-3.12.08-5.81,1-8.06,2.76s-3.58,4.16-3.97,7.2c-.2,1.62.11,2.96.92,4,.81,1.05,2.04,1.61,3.7,1.69,3.99.16,7.49-1.6,10.49-5.28l1.95-10.31-5.03-.06ZM375.59,177.21c-3.12.08-5.81,1-8.06,2.76-2.26,1.76-3.58,4.16-3.97,7.2-.2,1.62.1,2.96.92,4,.81,1.05,2.04,1.61,3.7,1.69,3.99.16,7.48-1.6,10.49-5.28l1.95-10.31-5.03-.06ZM488.76,155.82c-3.79-.07-6.97,1.53-9.53,4.83-2.57,3.3-4.2,7.64-4.86,13.01-.24,2.49-.36,4.58-.36,6.28,0,3.63.65,6.46,1.96,8.47,1.3,2.02,3.19,3.07,5.68,3.15,3.68.15,7.01-1.27,10.02-4.27l5.04-27.2c-1.58-2.76-4.23-4.19-7.95-4.27ZM619.13,177.21c-3.12.08-5.81,1-8.06,2.76s-3.58,4.16-3.97,7.2c-.2,1.62.11,2.96.92,4,.81,1.05,2.04,1.61,3.7,1.69,3.99.16,7.49-1.6,10.49-5.28l1.95-10.31-5.03-.06ZM488.76,155.82c-3.79-.07-6.97,1.53-9.53,4.83-2.57,3.3-4.2,7.64-4.86,13.01-.24,2.49-.36,4.58-.36,6.28,0,3.63.65,6.46,1.96,8.47,1.3,2.02,3.19,3.07,5.68,3.15,3.68.15,7.01-1.27,10.02-4.27l5.04-27.2c-1.58-2.76-4.23-4.19-7.95-4.27ZM375.59,177.21c-3.12.08-5.81,1-8.06,2.76-2.26,1.76-3.58,4.16-3.97,7.2-.2,1.62.1,2.96.92,4,.81,1.05,2.04,1.61,3.7,1.69,3.99.16,7.48-1.6,10.49-5.28l1.95-10.31-5.03-.06ZM619.13,177.21c-3.12.08-5.81,1-8.06,2.76s-3.58,4.16-3.97,7.2c-.2,1.62.11,2.96.92,4,.81,1.05,2.04,1.61,3.7,1.69,3.99.16,7.49-1.6,10.49-5.28l1.95-10.31-5.03-.06ZM488.76,155.82c-3.79-.07-6.97,1.53-9.53,4.83-2.57,3.3-4.2,7.64-4.86,13.01-.24,2.49-.36,4.58-.36,6.28,0,3.63.65,6.46,1.96,8.47,1.3,2.02,3.19,3.07,5.68,3.15,3.68.15,7.01-1.27,10.02-4.27l5.04-27.2c-1.58-2.76-4.23-4.19-7.95-4.27ZM375.59,177.21c-3.12.08-5.81,1-8.06,2.76-2.26,1.76-3.58,4.16-3.97,7.2-.2,1.62.1,2.96.92,4,.81,1.05,2.04,1.61,3.7,1.69,3.99.16,7.48-1.6,10.49-5.28l1.95-10.31-5.03-.06ZM619.13,177.21c-3.12.08-5.81,1-8.06,2.76s-3.58,4.16-3.97,7.2c-.2,1.62.11,2.96.92,4,.81,1.05,2.04,1.61,3.7,1.69,3.99.16,7.49-1.6,10.49-5.28l1.95-10.31-5.03-.06ZM488.76,155.82c-3.79-.07-6.97,1.53-9.53,4.83-2.57,3.3-4.2,7.64-4.86,13.01-.24,2.49-.36,4.58-.36,6.28,0,3.63.65,6.46,1.96,8.47,1.3,2.02,3.19,3.07,5.68,3.15,3.68.15,7.01-1.27,10.02-4.27l5.04-27.2c-1.58-2.76-4.23-4.19-7.95-4.27ZM375.59,177.21c-3.12.08-5.81,1-8.06,2.76-2.26,1.76-3.58,4.16-3.97,7.2-.2,1.62.1,2.96.92,4,.81,1.05,2.04,1.61,3.7,1.69,3.99.16,7.48-1.6,10.49-5.28l1.95-10.31-5.03-.06ZM619.13,177.21c-3.12.08-5.81,1-8.06,2.76s-3.58,4.16-3.97,7.2c-.2,1.62.11,2.96.92,4,.81,1.05,2.04,1.61,3.7,1.69,3.99.16,7.49-1.6,10.49-5.28l1.95-10.31-5.03-.06ZM488.76,155.82c-3.79-.07-6.97,1.53-9.53,4.83-2.57,3.3-4.2,7.64-4.86,13.01-.24,2.49-.36,4.58-.36,6.28,0,3.63.65,6.46,1.96,8.47,1.3,2.02,3.19,3.07,5.68,3.15,3.68.15,7.01-1.27,10.02-4.27l5.04-27.2c-1.58-2.76-4.23-4.19-7.95-4.27ZM375.59,177.21c-3.12.08-5.81,1-8.06,2.76-2.26,1.76-3.58,4.16-3.97,7.2-.2,1.62.1,2.96.92,4,.81,1.05,2.04,1.61,3.7,1.69,3.99.16,7.48-1.6,10.49-5.28l1.95-10.31-5.03-.06ZM619.13,177.21c-3.12.08-5.81,1-8.06,2.76s-3.58,4.16-3.97,7.2c-.2,1.62.11,2.96.92,4,.81,1.05,2.04,1.61,3.7,1.69,3.99.16,7.49-1.6,10.49-5.28l1.95-10.31-5.03-.06ZM488.76,155.82c-3.79-.07-6.97,1.53-9.53,4.83-2.57,3.3-4.2,7.64-4.86,13.01-.24,2.49-.36,4.58-.36,6.28,0,3.63.65,6.46,1.96,8.47,1.3,2.02,3.19,3.07,5.68,3.15,3.68.15,7.01-1.27,10.02-4.27l5.04-27.2c-1.58-2.76-4.23-4.19-7.95-4.27ZM375.59,177.21c-3.12.08-5.81,1-8.06,2.76-2.26,1.76-3.58,4.16-3.97,7.2-.2,1.62.1,2.96.92,4,.81,1.05,2.04,1.61,3.7,1.69,3.99.16,7.48-1.6,10.49-5.28l1.95-10.31-5.03-.06ZM619.13,177.21c-3.12.08-5.81,1-8.06,2.76s-3.58,4.16-3.97,7.2c-.2,1.62.11,2.96.92,4,.81,1.05,2.04,1.61,3.7,1.69,3.99.16,7.49-1.6,10.49-5.28l1.95-10.31-5.03-.06ZM488.76,155.82c-3.79-.07-6.97,1.53-9.53,4.83-2.57,3.3-4.2,7.64-4.86,13.01-.24,2.49-.36,4.58-.36,6.28,0,3.63.65,6.46,1.96,8.47,1.3,2.02,3.19,3.07,5.68,3.15,3.68.15,7.01-1.27,10.02-4.27l5.04-27.2c-1.58-2.76-4.23-4.19-7.95-4.27ZM375.59,177.21c-3.12.08-5.81,1-8.06,2.76-2.26,1.76-3.58,4.16-3.97,7.2-.2,1.62.1,2.96.92,4,.81,1.05,2.04,1.61,3.7,1.69,3.99.16,7.48-1.6,10.49-5.28l1.95-10.31-5.03-.06ZM619.13,177.21c-3.12.08-5.81,1-8.06,2.76s-3.58,4.16-3.97,7.2c-.2,1.62.11,2.96.92,4,.81,1.05,2.04,1.61,3.7,1.69,3.99.16,7.49-1.6,10.49-5.28l1.95-10.31-5.03-.06ZM488.76,155.82c-3.79-.07-6.97,1.53-9.53,4.83-2.57,3.3-4.2,7.64-4.86,13.01-.24,2.49-.36,4.58-.36,6.28,0,3.63.65,6.46,1.96,8.47,1.3,2.02,3.19,3.07,5.68,3.15,3.68.15,7.01-1.27,10.02-4.27l5.04-27.2c-1.58-2.76-4.23-4.19-7.95-4.27ZM375.59,177.21c-3.12.08-5.81,1-8.06,2.76-2.26,1.76-3.58,4.16-3.97,7.2-.2,1.62.1,2.96.92,4,.81,1.05,2.04,1.61,3.7,1.69,3.99.16,7.48-1.6,10.49-5.28l1.95-10.31-5.03-.06ZM488.76,155.82c-3.79-.07-6.97,1.53-9.53,4.83-2.57,3.3-4.2,7.64-4.86,13.01-.24,2.49-.36,4.58-.36,6.28,0,3.63.65,6.46,1.96,8.47,1.3,2.02,3.19,3.07,5.68,3.15,3.68.15,7.01-1.27,10.02-4.27l5.04-27.2c-1.58-2.76-4.23-4.19-7.95-4.27ZM375.59,177.21c-3.12.08-5.81,1-8.06,2.76-2.26,1.76-3.58,4.16-3.97,7.2-.2,1.62.1,2.96.92,4,.81,1.05,2.04,1.61,3.7,1.69,3.99.16,7.48-1.6,10.49-5.28l1.95-10.31-5.03-.06ZM488.76,155.82c-3.79-.07-6.97,1.53-9.53,4.83-2.57,3.3-4.2,7.64-4.86,13.01-.24,2.49-.36,4.58-.36,6.28,0,3.63.65,6.46,1.96,8.47,1.3,2.02,3.19,3.07,5.68,3.15,3.68.15,7.01-1.27,10.02-4.27l5.04-27.2c-1.58-2.76-4.23-4.19-7.95-4.27ZM375.59,177.21c-3.12.08-5.81,1-8.06,2.76-2.26,1.76-3.58,4.16-3.97,7.2-.2,1.62.1,2.96.92,4,.81,1.05,2.04,1.61,3.7,1.69,3.99.16,7.48-1.6,10.49-5.28l1.95-10.31-5.03-.06ZM375.59,177.21c-3.12.08-5.81,1-8.06,2.76-2.26,1.76-3.58,4.16-3.97,7.2-.2,1.62.1,2.96.92,4,.81,1.05,2.04,1.61,3.7,1.69,3.99.16,7.48-1.6,10.49-5.28l1.95-10.31-5.03-.06ZM375.59,177.21c-3.12.08-5.81,1-8.06,2.76-2.26,1.76-3.58,4.16-3.97,7.2-.2,1.62.1,2.96.92,4,.81,1.05,2.04,1.61,3.7,1.69,3.99.16,7.48-1.6,10.49-5.28l1.95-10.31-5.03-.06Z"/>
</svg>